<svg fill="#000" version="1.1" xmlns="http://www.w3.org/2000/svg" x="0px" y="0px" viewBox="0 0 140 140" xml:space="preserve"><polygon points="22.093 21.671 26.068 21.671 26.068 33.04 36.825 21.671 41.702 21.671 32.302 31.392 42.121 44.281 37.308 44.281 29.587 34.106 26.068 37.723 26.068 44.281 22.093 44.281 "></polygon><path d="M75.665 32.976c0-4.393-3.196-8.043-7.686-8.043 -4.49 0-7.624 3.586-7.624 8.043 0 4.392 3.2 8.043 7.69 8.043C72.533 41.018 75.665 37.433 75.665 32.976M56.19 32.976c0-6.365 4.909-11.694 11.855-11.694 6.944 0 11.789 5.266 11.789 11.694 0 6.364-4.911 11.693-11.855 11.693C61.034 44.668 56.19 39.402 56.19 32.976"></path><path d="M113.559 32.976c0-4.393-3.198-8.043-7.688-8.043 -4.488 0-7.622 3.586-7.622 8.043 0 4.392 3.2 8.043 7.688 8.043C110.428 41.018 113.559 37.433 113.559 32.976M94.083 32.976c0-6.365 4.907-11.694 11.853-11.694 6.944 0 11.789 5.266 11.789 11.694 0 6.364-4.909 11.693-11.855 11.693C98.927 44.668 94.083 39.402 94.083 32.976"></path><polygon points="22.093 78.204 35.433 62.053 22.512 62.053 22.512 58.531 40.601 58.531 40.601 61.472 27.259 77.622 40.601 77.622 40.601 81.142 22.093 81.142 "></polygon><polygon points="56.9 58.532 61.13 58.532 68.01 69.222 74.89 58.532 79.121 58.532 79.121 81.141 75.149 81.141 75.149 64.929 68.01 75.588 67.883 75.588 60.806 64.992 60.806 81.141 56.9 81.141 "></polygon><polygon points="97.695 58.532 114.462 58.532 114.462 62.084 101.669 62.084 101.669 67.964 113.005 67.964 113.005 71.517 101.669 71.517 101.669 77.589 114.622 77.589 114.622 81.141 97.695 81.141 "></polygon><polygon points="29.264 99.077 22.093 99.077 22.093 95.394 40.441 95.394 40.441 99.077 33.273 99.077 33.273 118.004 29.264 118.004 "></polygon><rect x="66.026" y="95.394" width="3.974" height="22.611"></rect><rect x="66.024" y="18.039" transform="matrix(-0.7075 -0.7068 0.7068 -0.7075 92.7063 104.6475)" width="3.974" height="30.197"></rect><rect x="103.916" y="18.039" transform="matrix(-0.7072 -0.707 0.707 -0.7072 157.3709 131.4446)" width="3.973" height="30.195"></rect><polygon points="97.697 95.394 101.671 95.394 101.671 106.764 112.427 95.394 117.306 95.394 107.907 105.119 117.725 118.004 112.915 118.004 105.194 107.832 101.671 111.448 101.671 118.004 97.697 118.004 "></polygon><path d="M139.5 139.5H0.5V0.5h139V139.5zM4.765 135.235h130.47V4.764H4.765V135.235z"></path></svg>